<mxfile>
    <diagram id="RnfxCtALP6RNCKMLsd0G" name="Page-1">
        <mxGraphModel dx="2405" dy="1383" grid="1" gridSize="10" guides="1" tooltips="1" connect="1" arrows="1" fold="1" page="1" pageScale="1" pageWidth="827" pageHeight="1169" math="0" shadow="0">
            <root>
                <mxCell id="0"/>
                <mxCell id="1" parent="0"/>
                <mxCell id="2" value="Home Page" style="rounded=1;whiteSpace=wrap;html=1;" parent="1" vertex="1">
                    <mxGeometry x="40" y="60" width="720" height="90" as="geometry"/>
                </mxCell>
                <mxCell id="3" value="Health Category 1 - Heart" style="rounded=1;whiteSpace=wrap;html=1;" parent="1" vertex="1">
                    <mxGeometry x="40" y="180" width="140" height="180" as="geometry"/>
                </mxCell>
                <mxCell id="4" value="Vision and Mission" style="rounded=1;whiteSpace=wrap;html=1;" parent="1" vertex="1">
                    <mxGeometry x="40" y="400" width="740" height="180" as="geometry"/>
                </mxCell>
                <mxCell id="5" value="Health Category 5 - other" style="rounded=1;whiteSpace=wrap;html=1;" parent="1" vertex="1">
                    <mxGeometry x="640" y="180" width="140" height="180" as="geometry"/>
                </mxCell>
                <mxCell id="6" value="Health Category 2 - Cancer" style="rounded=1;whiteSpace=wrap;html=1;" parent="1" vertex="1">
                    <mxGeometry x="190" y="180" width="140" height="180" as="geometry"/>
                </mxCell>
                <mxCell id="7" value="Health Category 3 - vision problems" style="rounded=1;whiteSpace=wrap;html=1;" parent="1" vertex="1">
                    <mxGeometry x="340" y="180" width="140" height="180" as="geometry"/>
                </mxCell>
                <mxCell id="8" value="Health Category 4 - infants" style="rounded=1;whiteSpace=wrap;html=1;" parent="1" vertex="1">
                    <mxGeometry x="490" y="180" width="140" height="180" as="geometry"/>
                </mxCell>
                <mxCell id="9" value="Milestones (Refer littlehearts.lk , include hoda wuna gaana, number of dinations etc.)" style="rounded=1;whiteSpace=wrap;html=1;" parent="1" vertex="1">
                    <mxGeometry x="40" y="600" width="740" height="180" as="geometry"/>
                </mxCell>
                <mxCell id="10" value="Patners and Sponsors" style="rounded=1;whiteSpace=wrap;html=1;" parent="1" vertex="1">
                    <mxGeometry x="40" y="800" width="740" height="180" as="geometry"/>
                </mxCell>
                <mxCell id="11" value="Footer&amp;nbsp;" style="rounded=1;whiteSpace=wrap;html=1;" parent="1" vertex="1">
                    <mxGeometry x="40" y="1010" width="740" height="90" as="geometry"/>
                </mxCell>
                <mxCell id="12" value="Health Category 1 - Heart" style="rounded=1;whiteSpace=wrap;html=1;" parent="1" vertex="1">
                    <mxGeometry x="860" y="55" width="740" height="105" as="geometry"/>
                </mxCell>
                <mxCell id="13" value="Emergency PopUps" style="rounded=1;whiteSpace=wrap;html=1;" parent="1" vertex="1">
                    <mxGeometry x="860" y="180" width="100" height="800" as="geometry"/>
                </mxCell>
                <mxCell id="14" value="Emergency PopUps" style="rounded=1;whiteSpace=wrap;html=1;" parent="1" vertex="1">
                    <mxGeometry x="1500" y="184.5" width="100" height="800" as="geometry"/>
                </mxCell>
                <mxCell id="15" value="Footer&amp;nbsp;" style="rounded=1;whiteSpace=wrap;html=1;" parent="1" vertex="1">
                    <mxGeometry x="860" y="1010" width="740" height="90" as="geometry"/>
                </mxCell>
                <mxCell id="16" value="&lt;font color=&quot;#000000&quot;&gt;Post 1&lt;/font&gt;" style="rounded=1;whiteSpace=wrap;html=1;" parent="1" vertex="1">
                    <mxGeometry x="980" y="184.5" width="500" height="115.5" as="geometry"/>
                </mxCell>
                <mxCell id="17" value="Post 1" style="rounded=1;whiteSpace=wrap;html=1;" parent="1" vertex="1">
                    <mxGeometry x="980" y="320" width="500" height="115.5" as="geometry"/>
                </mxCell>
                <mxCell id="18" value="Post 1" style="rounded=1;whiteSpace=wrap;html=1;" parent="1" vertex="1">
                    <mxGeometry x="980" y="450" width="500" height="115.5" as="geometry"/>
                </mxCell>
                <mxCell id="19" value="Post 1" style="rounded=1;whiteSpace=wrap;html=1;" parent="1" vertex="1">
                    <mxGeometry x="980" y="590" width="500" height="115.5" as="geometry"/>
                </mxCell>
                <mxCell id="20" value="Post 1" style="rounded=1;whiteSpace=wrap;html=1;" parent="1" vertex="1">
                    <mxGeometry x="980" y="730" width="500" height="115.5" as="geometry"/>
                </mxCell>
                <mxCell id="21" value="Post 1" style="rounded=1;whiteSpace=wrap;html=1;" parent="1" vertex="1">
                    <mxGeometry x="980" y="864.5" width="500" height="115.5" as="geometry"/>
                </mxCell>
                <mxCell id="22" value="Post 1" style="rounded=1;whiteSpace=wrap;html=1;" parent="1" vertex="1">
                    <mxGeometry x="1660" y="55" width="750" height="105" as="geometry"/>
                </mxCell>
                <mxCell id="23" value="Emergency PopUps" style="rounded=1;whiteSpace=wrap;html=1;" parent="1" vertex="1">
                    <mxGeometry x="1660" y="180" width="100" height="800" as="geometry"/>
                </mxCell>
                <mxCell id="24" value="Emergency PopUps" style="rounded=1;whiteSpace=wrap;html=1;" parent="1" vertex="1">
                    <mxGeometry x="2310" y="180" width="100" height="800" as="geometry"/>
                </mxCell>
                <mxCell id="25" value="Information about the patient&amp;nbsp;" style="rounded=1;whiteSpace=wrap;html=1;" parent="1" vertex="1">
                    <mxGeometry x="1780" y="184.5" width="510" height="215.5" as="geometry"/>
                </mxCell>
                <mxCell id="26" value="Information about the health condition" style="rounded=1;whiteSpace=wrap;html=1;" parent="1" vertex="1">
                    <mxGeometry x="1780" y="410" width="510" height="570" as="geometry"/>
                </mxCell>
                <mxCell id="27" value="Footer&amp;nbsp;" style="rounded=1;whiteSpace=wrap;html=1;" parent="1" vertex="1">
                    <mxGeometry x="1660" y="1000" width="740" height="90" as="geometry"/>
                </mxCell>
                <mxCell id="28" value="Donate Now" style="rounded=1;whiteSpace=wrap;html=1;" parent="1" vertex="1">
                    <mxGeometry x="2140" y="212" width="120" height="60" as="geometry"/>
                </mxCell>
                <mxCell id="29" value="Donate Now" style="rounded=1;whiteSpace=wrap;html=1;" parent="1" vertex="1">
                    <mxGeometry x="2160" y="870" width="120" height="60" as="geometry"/>
                </mxCell>
                <mxCell id="30" value="Donate Now" style="rounded=1;whiteSpace=wrap;html=1;" parent="1" vertex="1">
                    <mxGeometry x="1340" y="212.25" width="120" height="60" as="geometry"/>
                </mxCell>
                <mxCell id="31" value="Donate Now" style="rounded=1;whiteSpace=wrap;html=1;" parent="1" vertex="1">
                    <mxGeometry x="1340" y="347.75" width="120" height="60" as="geometry"/>
                </mxCell>
                <mxCell id="32" value="Donate Now" style="rounded=1;whiteSpace=wrap;html=1;" parent="1" vertex="1">
                    <mxGeometry x="1340" y="470" width="120" height="60" as="geometry"/>
                </mxCell>
                <mxCell id="33" value="Donate Now" style="rounded=1;whiteSpace=wrap;html=1;" parent="1" vertex="1">
                    <mxGeometry x="1340" y="617.75" width="120" height="60" as="geometry"/>
                </mxCell>
                <mxCell id="34" value="Donate Now" style="rounded=1;whiteSpace=wrap;html=1;" parent="1" vertex="1">
                    <mxGeometry x="1340" y="757.75" width="120" height="60" as="geometry"/>
                </mxCell>
                <mxCell id="35" value="Donate Now" style="rounded=1;whiteSpace=wrap;html=1;" parent="1" vertex="1">
                    <mxGeometry x="1340" y="892.25" width="120" height="60" as="geometry"/>
                </mxCell>
                <mxCell id="36" value="Donate Now" style="rounded=1;whiteSpace=wrap;html=1;" parent="1" vertex="1">
                    <mxGeometry x="40" y="1180" width="670" height="85" as="geometry"/>
                </mxCell>
                <mxCell id="37" value="Payment gateway and API (Refer Little hearts)" style="rounded=1;whiteSpace=wrap;html=1;" parent="1" vertex="1">
                    <mxGeometry x="40" y="1295" width="670" height="920" as="geometry"/>
                </mxCell>
                <mxCell id="38" value="Donators Profile (Optional)" style="rounded=1;whiteSpace=wrap;html=1;" parent="1" vertex="1">
                    <mxGeometry x="930" y="1190" width="600" height="85" as="geometry"/>
                </mxCell>
                <mxCell id="39" value="About Us" style="rounded=1;whiteSpace=wrap;html=1;" parent="1" vertex="1">
                    <mxGeometry x="1770" y="1200" width="530" height="80" as="geometry"/>
                </mxCell>
                <mxCell id="40" value="Contact us&lt;br&gt;feedback form" style="rounded=1;whiteSpace=wrap;html=1;" parent="1" vertex="1">
                    <mxGeometry x="1785" y="1752.75" width="500" height="150" as="geometry"/>
                </mxCell>
                <mxCell id="41" value="Details" style="rounded=1;whiteSpace=wrap;html=1;" parent="1" vertex="1">
                    <mxGeometry x="1785" y="1329.5" width="500" height="355.5" as="geometry"/>
                </mxCell>
                <mxCell id="42" value="x5" style="text;html=1;align=center;verticalAlign=middle;resizable=0;points=[];autosize=1;" parent="1" vertex="1">
                    <mxGeometry x="1225" y="20" width="30" height="20" as="geometry"/>
                </mxCell>
                <mxCell id="43" value="Filter by date and amount" style="rounded=0;whiteSpace=wrap;html=1;" parent="1" vertex="1">
                    <mxGeometry x="990" y="160" width="100" height="30" as="geometry"/>
                </mxCell>
                <mxCell id="44" value="Payment gateway and API (Refer Little hearts)" style="rounded=1;whiteSpace=wrap;html=1;" parent="1" vertex="1">
                    <mxGeometry x="917.5" y="1325" width="625" height="840" as="geometry"/>
                </mxCell>
                <mxCell id="45" value="Footer&amp;nbsp;" style="rounded=1;whiteSpace=wrap;html=1;" parent="1" vertex="1">
                    <mxGeometry x="1770" y="2037.25" width="530" height="90" as="geometry"/>
                </mxCell>
                <mxCell id="46" value="" style="endArrow=none;html=1;" parent="1" edge="1">
                    <mxGeometry width="50" height="50" relative="1" as="geometry">
                        <mxPoint x="-20" y="1150" as="sourcePoint"/>
                        <mxPoint x="2460" y="1150" as="targetPoint"/>
                    </mxGeometry>
                </mxCell>
                <mxCell id="47" value="New Idea&lt;br&gt;&lt;br&gt;Abour Us, Contact Us and other uninmportant page links will be added to the footer rather than adding it in the nav bar." style="whiteSpace=wrap;html=1;" vertex="1" parent="1">
                    <mxGeometry x="2540" y="60" width="700" height="470" as="geometry"/>
                </mxCell>
            </root>
        </mxGraphModel>
    </diagram>
</mxfile>